<svg width="12" height="16" viewBox="0 0 12 16" version="1.1" xmlns="http://www.w3.org/2000/svg" xmlns:xlink="http://www.w3.org/1999/xlink">
<g data-name="Canvas" fill="none">
<g data-name="file-media">
<g data-name="Shape">
<path fill-rule="evenodd" clip-rule="evenodd" d="M 6 4L 8 4L 8 6L 6 6L 6 4ZM 12 3.5L 12 13C 12 13.55 11.55 14 11 14L 1 14C 0.45 14 0 13.55 0 13L 0 1C 0 0.45 0.45 0 1 0L 8.5 0L 12 3.5ZM 11 4L 8 1L 1 1L 1 12L 4 7L 6 11L 8 9L 11 12L 11 4Z" transform="translate(0 1)" fill="white"/>
</g>
</g>
</g>
</svg>
