<svg width="16" height="16" viewBox="0 0 16 16" version="1.1" xmlns="http://www.w3.org/2000/svg" xmlns:xlink="http://www.w3.org/1999/xlink">
<g data-name="Canvas" fill="none">
<g data-name="organization">
<g data-name="Shape">
<path fill-rule="evenodd" clip-rule="evenodd" d="M 16 11.999C 16 12.438 15.55 12.999 15 12.999L 7.995 12.999C 7.456 12.999 7.001 12.552 7 12L 1 12C 0.46 12 0 11.439 0 11C 0 8.366 3 7 3 7C 3 7 3.229 6.591 3 6C 2.159 5.379 1.942 5.41 2 3C 2.058 0.581 3.367 0 4.5 0C 5.633 0 6.942 0.58 7 3C 7.058 5.41 6.841 5.379 6 6C 5.771 6.59 6 7 6 7C 6 7 7.549 7.711 8.42 9.088C 9.196 8.369 10 7.999 10 7.999C 10 7.999 10.229 7.59 10 6.999C 9.159 6.379 8.942 6.409 9 3.999C 9.058 1.58 10.367 0.999 11.5 0.999C 12.633 0.999 13.937 1.58 13.995 3.999C 14.054 6.409 13.837 6.379 12.995 6.999C 12.766 7.589 12.995 7.999 12.995 7.999C 12.995 7.999 16 9.365 16 11.999Z" transform="translate(0 1)" fill="white"/>
</g>
</g>
</g>
</svg>
